PathFileType	4	(X/Y/Z)	/Users/itak/Documents/Research/Walk-IL/dataset/trc/00160_00008.trc
DataRate	CameraRate	NumFrames	NumMarkers	Units	OrigDataRate	OrigDataStartFrame	OrigNumFrames
100.000000	100.000000	4	53	mm	100.000000	139	559
Frame#	Time	RPSI			LPSI			L3			STRN			T10			C7			CLAV			RBAK			LBAK			LSHO			LUPA			LAEL			LAOL			LWTS			LWPS			LFRA			LIFD			LHPS			LHTS			RSHO			RUPA			RAEL			RAOL			RWTS			RWPS			RFRA			RIFD			RHTS			RHPS			RBHD			LFHD			RFHD			LBHD			LHIP			RHIP			RASI			LASI			LKNE			LTHI			LANK			LTIP			LTOE			LMT1			LMT5			LHEE			RKNE			RTHI			RANK			RTIP			RTOE			RMT1			RMT5			RHEE			
		X1	Y1	Z1	X2	Y2	Z2	X3	Y3	Z3	X4	Y4	Z4	X5	Y5	Z5	X6	Y6	Z6	X7	Y7	Z7	X8	Y8	Z8	X9	Y9	Z9	X10	Y10	Z10	X11	Y11	Z11	X12	Y12	Z12	X13	Y13	Z13	X14	Y14	Z14	X15	Y15	Z15	X16	Y16	Z16	X17	Y17	Z17	X18	Y18	Z18	X19	Y19	Z19	X20	Y20	Z20	X21	Y21	Z21	X22	Y22	Z22	X23	Y23	Z23	X24	Y24	Z24	X25	Y25	Z25	X26	Y26	Z26	X27	Y27	Z27	X28	Y28	Z28	X29	Y29	Z29	X30	Y30	Z30	X31	Y31	Z31	X32	Y32	Z32	X33	Y33	Z33	X34	Y34	Z34	X35	Y35	Z35	X36	Y36	Z36	X37	Y37	Z37	X38	Y38	Z38	X39	Y39	Z39	X40	Y40	Z40	X41	Y41	Z41	X42	Y42	Z42	X43	Y43	Z43	X44	Y44	Z44	X45	Y45	Z45	X46	Y46	Z46	X47	Y47	Z47	X48	Y48	Z48	X49	Y49	Z49	X50	Y50	Z50	X51	Y51	Z51	X52	Y52	Z52	X53	Y53	Z53	

140	1.39	-1892.247680664062	1060.046630859375	72.45705413818359	-1889.187255859375	1061.7666015625	-51.46804046630859	-1887.950927734375	1098.9462890625	13.02639484405518	-1614.205810546875	1287.557250976562	12.65150547027588	-1912.017578125	1262.70654296875	6.283631324768066	-1822.062866210938	1525.046264648438	-4.522438049316406	-1630.706909179688	1403.785888671875	3.243765354156494	-1907.2763671875	1356.366821289062	104.3265914916992	-1829.384521484375	1501.911010742188	-106.5111236572266	-1751.118286132812	1481.330810546875	-183.0384979248047	-1790.1474609375	1351.18017578125	-256.1182556152344	-1781.995971679688	1130.931518554688	-272.0855102539062	-1834.974487304688	1119.489501953125	-202.4847259521484	-1676.819091796875	899.2861328125	-224.7656707763672	-1754.378784179688	878.1825561523438	-273.9849548339844	-1768.338012695312	1019.994262695312	-282.4993591308594	-1668.055908203125	715.727294921875	-196.8911590576172	-1732.998046875	808.4591064453125	-266.9993896484375	-1663.783935546875	819.8782348632812	-243.3158416748047	-1765.203979492188	1498.766235351562	178.0256805419922	-1790.688720703125	1433.626220703125	248.2618408203125	-1818.683837890625	1142.976318359375	298.64892578125	-1827.701293945312	1138.790283203125	200.6492614746094	-1684.325927734375	912.48486328125	263.6985473632812	-1757.56787109375	896.2677001953125	314.5889892578125	-1793.876708984375	1068.7861328125	313.1097412109375	-1676.546264648438	725.4037475585938	234.1068725585938	-1659.713500976562	817.6056518554688	268.4123840332031	-1729.9248046875	811.659423828125	307.1942443847656	-1744.542846679688	1682.684326171875	71.62246704101562	-1588.039672851562	1706.201904296875	-78.65926361083984	-1571.763061523438	1706.845092773438	49.8608283996582	-1765.580200195312	1690.4970703125	-64.12468719482422	-1788.073608398438	994.2303466796875	-171.0866546630859	-1741.6455078125	1006.831359863281	198.1829528808594	-1657.648559570312	1031.82421875	143.1942749023438	-1663.093139648438	1024.863037109375	-115.9259185791016	-1759.613891601562	492.8699340820312	-170.6017913818359	-1760.405517578125	638.890380859375	-189.2782897949219	-1902.540405273438	43.64016723632812	-204.7706909179688	-1828.93017578125	275.6691284179688	-199.9337158203125	-1682.993774414062	39.03071212768555	-189.3190155029297	-1731.36865234375	38.28532409667969	-139.3361511230469	-1796.863891601562	33.35376358032227	-250.1046905517578	-1949.306518554688	42.50722503662109	-131.0247497558594	-1752.880859375	506.3104858398438	142.3276824951172	-1699.730834960938	769.1478881835938	193.0230560302734	-1886.822875976562	36.57846450805664	115.0626831054688	-1752.642456054688	385.5455322265625	115.0277938842773	-1664.776733398438	38.77219772338867	79.38059234619141	-1719.222412109375	36.18451309204102	33.67242050170898	-1774.53271484375	33.64192962646484	149.4527435302734	-1938.05517578125	38.37064361572266	49.02006149291992	
141	1.4	-1891.577758789062	1059.93310546875	73.83869171142578	-1888.684326171875	1061.867431640625	-50.0669059753418	-1887.325439453125	1098.98291015625	14.475754737854	-1613.262084960938	1287.341430664062	14.21276092529297	-1911.13671875	1262.921997070312	7.796956539154053	-1820.747192382812	1525.107299804688	-2.929435968399048	-1629.5419921875	1403.601928710938	4.795613288879395	-1906.241455078125	1356.535766601562	105.8859176635742	-1828.064331054688	1502.037353515625	-104.9359512329102	-1749.835693359375	1481.431518554688	-181.4410858154297	-1789.160278320312	1351.421020507812	-254.6109924316406	-1781.680419921875	1131.24365234375	-270.6799926757812	-1834.292358398438	1119.772705078125	-200.7833099365234	-1676.112426757812	899.6150512695312	-224.1490173339844	-1754.027954101562	878.4813842773438	-272.8362426757812	-1768.1005859375	1020.27880859375	-281.2269897460938	-1666.936401367188	716.1014404296875	-196.4156951904297	-1732.515380859375	808.7598876953125	-265.9899291992188	-1663.195922851562	820.258544921875	-242.774169921875	-1763.95703125	1498.713256835938	179.6049652099609	-1789.53564453125	1433.634887695312	249.8216400146484	-1818.054443359375	1143.016723632812	300.12060546875	-1827.04443359375	1138.897216796875	202.1306304931641	-1684.139892578125	912.2551879882812	265.1231079101562	-1757.404296875	896.172607421875	315.9958801269531	-1793.413330078125	1068.754028320312	314.5659790039062	-1676.797485351562	725.1942749023438	235.4421081542969	-1659.74853515625	817.300048828125	269.7939147949219	-1729.973510742188	811.491943359375	308.5730590820312	-1743.087890625	1682.708740234375	72.98575592041016	-1586.75439453125	1705.8623046875	-77.49602508544922	-1570.311645507812	1706.771484375	51.0050163269043	-1764.243041992188	1690.223876953125	-62.75216293334961	-1787.604736328125	994.3602905273438	-169.7767944335938	-1741.184448242188	1006.48779296875	199.5186004638672	-1657.06494140625	1031.653198242188	144.6645812988281	-1662.693237304688	1024.954956054688	-114.5052947998047	-1752.961181640625	492.478515625	-170.8692932128906	-1755.931884765625	638.7467651367188	-189.0016174316406	-1902.302368164062	44.33985900878906	-204.5339050292969	-1825.28466796875	275.3768615722656	-200.0083618164062	-1682.969482421875	38.97038269042969	-189.3211822509766	-1731.244140625	38.22637939453125	-139.3633117675781	-1796.737670898438	33.37837219238281	-249.9926910400391	-1949.052612304688	43.78656387329102	-130.8423461914062	-1752.14013671875	506.0144653320312	142.9166259765625	-1699.239990234375	768.8287353515625	194.0542297363281	-1886.8525390625	36.48934555053711	115.118522644043	-1751.98974609375	385.251220703125	115.3970336914062	-1664.8466796875	38.79396438598633	79.33477783203125	-1719.337280273438	36.15444946289062	33.67306518554688	-1774.542724609375	33.64862060546875	149.4301147460938	-1938.13330078125	38.34563827514648	49.085693359375	
142	1.41	-1890.91064453125	1059.786499023438	75.22592163085938	-1888.217651367188	1061.909423828125	-48.64891815185547	-1886.716064453125	1098.99072265625	15.93964862823486	-1612.311889648438	1287.077758789062	15.7561674118042	-1910.26171875	1263.1357421875	9.334924697875977	-1819.404296875	1525.154663085938	-1.320319890975952	-1628.361694335938	1403.379760742188	6.334486484527588	-1905.18603515625	1356.693603515625	107.464469909668	-1826.728759765625	1502.146850585938	-103.3467483520508	-1748.553100585938	1481.50439453125	-179.8378143310547	-1788.177856445312	1351.62646484375	-253.0875549316406	-1781.364990234375	1131.521850585938	-269.2740783691406	-1833.600463867188	1120.014282226562	-199.0780792236328	-1675.357299804688	899.9264526367188	-223.5494079589844	-1753.67041015625	878.7482299804688	-271.6974792480469	-1767.8623046875	1020.525512695312	-279.9568176269531	-1665.735107421875	716.4623413085938	-196.0165863037109	-1731.980590820312	809.0272827148438	-264.99560546875	-1662.583618164062	820.6353759765625	-242.291259765625	-1762.65966796875	1498.630981445312	181.1895446777344	-1788.3330078125	1433.609741210938	251.39501953125	-1817.39501953125	1143.03369140625	301.668701171875	-1826.377807617188	1138.972534179688	203.6905822753906	-1683.895141601562	912.0188598632812	266.5714721679688	-1757.164306640625	896.0433349609375	317.4506530761719	-1792.903198242188	1068.705322265625	316.0849304199219	-1676.971801757812	724.9724731445312	236.7890472412109	-1659.679809570312	817.0087890625	271.199951171875	-1729.921020507812	811.3082885742188	309.9882507324219	-1741.569213867188	1682.71533203125	74.34861755371094	-1585.405883789062	1705.464965820312	-76.35726928710938	-1568.789306640625	1706.653686523438	52.11698532104492	-1762.858032226562	1689.930786132812	-61.38132858276367	-1787.18017578125	994.4319458007812	-168.4687347412109	-1740.676147460938	1006.132751464844	200.8387298583984	-1656.466796875	1031.4716796875	146.1162414550781	-1662.328979492188	1025.034301757812	-113.1030654907227	-1745.793212890625	492.1202697753906	-171.2264862060547	-1751.008178710938	638.6178588867188	-188.6811218261719	-1902.009033203125	45.34234619140625	-204.2010345458984	-1821.34912109375	275.2493896484375	-200.083740234375	-1682.951782226562	38.89480590820312	-189.3594207763672	-1731.065673828125	38.14675521850586	-139.4084014892578	-1796.585693359375	33.46706771850586	-249.7914733886719	-1948.6904296875	45.54041290283203	-130.5408477783203	-1751.3515625	505.6921997070312	143.4931488037109	-1698.666625976562	768.484619140625	195.0594635009766	-1886.893188476562	36.39666366577148	115.1692047119141	-1751.319946289062	384.9367065429688	115.7610549926758	-1664.915161132812	38.82600784301758	79.29595184326172	-1719.468139648438	36.12333297729492	33.67887878417969	-1774.555541992188	33.65615463256836	149.4028472900391	-1938.21484375	38.30807113647461	49.1421012878418	
143	1.42	-1890.241333007812	1059.60986328125	76.62631988525391	-1887.785766601562	1061.89208984375	-47.20404052734375	-1886.123168945312	1098.966552734375	17.42609977722168	-1611.348510742188	1286.769165039062	17.2679386138916	-1909.393676757812	1263.348999023438	10.89844608306885	-1818.03466796875	1525.19140625	0.3009856343269348	-1627.166015625	1403.123046875	7.853379726409912	-1904.1103515625	1356.842529296875	109.0568466186523	-1825.381713867188	1502.242065429688	-101.7481536865234	-1747.276245117188	1481.544799804688	-178.2368927001953	-1787.20556640625	1351.789916992188	-251.5462493896484	-1781.049438476562	1131.7587890625	-267.8696899414062	-1832.896484375	1120.203857421875	-197.3744049072266	-1674.5546875	900.2191162109375	-222.9692077636719	-1753.295043945312	878.976806640625	-270.5740661621094	-1767.619018554688	1020.728820800781	-278.6916198730469	-1664.44189453125	716.8046264648438	-195.7095489501953	-1731.389892578125	809.2597045898438	-264.0302429199219	-1661.933715820312	821.0045166015625	-241.8737030029297	-1761.308471679688	1498.517578125	182.7740173339844	-1787.079345703125	1433.547729492188	252.9759063720703	-1816.695068359375	1143.0205078125	303.287353515625	-1825.694213867188	1139.007446289062	205.321044921875	-1683.584228515625	911.7742919921875	268.041259765625	-1756.843872070312	895.8810424804688	318.9561157226562	-1792.337158203125	1068.635009765625	317.6630859375	-1677.072631835938	724.7237548828125	238.1536254882812	-1659.504272460938	816.7296142578125	272.6291809082031	-1729.763549804688	811.111572265625	311.4425354003906	-1739.980102539062	1682.704956054688	75.70658111572266	-1583.988037109375	1705.014526367188	-75.24488830566406	-1567.19091796875	1706.4892578125	53.19593048095703	-1761.421142578125	1689.629638671875	-60.01305389404297	-1786.799194335938	994.4546508789062	-167.1669158935547	-1740.08154296875	1005.769897460938	202.1454620361328	-1655.844848632812	1031.270385742188	147.5403594970703	-1661.990112304688	1025.109619140625	-111.7298736572266	-1738.143310546875	491.8434448242188	-171.6496887207031	-1745.636108398438	638.545166015625	-188.2899322509766	-1901.653686523438	46.71364974975586	-203.7642364501953	-1817.1435546875	275.3579711914062	-200.1409301757812	-1682.955810546875	38.81335067749023	-189.4589996337891	-1730.825439453125	38.05644226074219	-139.4836883544922	-1796.424682617188	33.64759063720703	-249.4893951416016	-1948.190551757812	47.83998870849609	-130.0974578857422	-1750.525390625	505.3487243652344	144.0573883056641	-1698.006469726562	768.1109008789062	196.0274505615234	-1886.941040039062	36.30116271972656	115.2170486450195	-1750.636108398438	384.595458984375	116.1175003051758	-1664.974243164062	38.86550140380859	79.25563812255859	-1719.597412109375	36.0920295715332	33.67977142333984	-1774.5673828125	33.66520690917969	149.3717346191406	-1938.296997070312	38.25805282592773	49.19319152832031	
